<svg width="27" height="28" viewBox="0 0 27 28" fill="none" xmlns="http://www.w3.org/2000/svg">
<path d="M26.9865 15.3563C25.6458 7.90234 20.499 3.42344 15.0005 2.72891V1.75C15.0005 0.782031 14.3302 0 13.5005 0C12.6708 0 12.0005 0.782031 12.0005 1.75V2.72891C6.48334 3.42344 1.38333 7.90234 0.0145849 15.3563C-0.0885402 15.9086 0.413022 16.5211 0.891147 15.9797C3.32865 12.9719 5.93959 13.1141 8.32552 18.0031C8.57396 18.5227 9.02396 18.4734 9.24896 18.0031C10.1958 16.0672 11.3536 14 13.5005 14C16.2427 14 17.6349 17.7625 17.7521 18.0031C17.9771 18.4734 18.4271 18.5227 18.6755 18.0031C21.0661 13.1086 23.6958 13.0047 26.1099 15.9797C26.5927 16.5266 27.0896 15.9086 26.9865 15.3563ZM12.0005 16.4992V23.625C12.0005 24.1063 11.663 24.5 11.2505 24.5C10.8849 24.5 10.6318 24.2102 10.5427 23.9148C10.2661 23.0016 9.41302 22.5258 8.63021 22.8484C7.8474 23.1711 7.43959 24.1719 7.71615 25.0797C8.24115 26.8242 9.66615 27.9945 11.2505 27.9945C13.3177 27.9945 15.0005 26.0313 15.0005 23.6195V16.4938C14.574 16.0617 14.0724 15.75 13.5005 15.75C12.924 15.7555 12.4505 16.0125 12.0005 16.4992Z" fill="#00C650"/>
</svg>
